Karungali (2011) Tamil 1CD TC Rip XviD MP3-=MTR=-

Check out MY latest Uploads:
 
http://thepiratebay.org/user/HDvideos/0/7

Stay updated with us....

Seed after downloading....

EnjoY with HDvideos..

Team Mastitorrents

Say thanks if u like my posts

Give ur valuable feedbacks

Quality Uploads from HDvideos

-=MT=-Uploader-=HDvideos=-

Recommended Player:VLC Player

Want More: Join -=Mastitorrents=-

Video
ID                               : 0
Format                           : MPEG-4 Visual
Format profile                   : Advanced Simple@L5
Format settings, BVOP            : 2
Format settings, QPel            : No
Format settings, GMC             : No warppoints
Format settings, Matrix          : Default (H.263)
Codec ID                         : XVID
Codec ID/Hint                    : XviD
Duration                         : 2h 40mn
Bit rate                         : 530 Kbps
Width                            : 608 pixels
Height                           : 256 pixels
Display aspect ratio             : 2.35:1
Frame rate                       : 29.970 fps
Color space                      : YUV
Chroma subsampling               : 4:2:0
Bit depth                        : 8 bits
Scan type                        : Progressive
Compression mode                 : Lossy
Bits/(Pixel*Frame)               : 0.114
Stream size                      : 608 MiB (86%)
Writing library                  : XviD 1.2.1 (UTC 2008-12-04)

Audio
ID                               : 1
Format                           : MPEG Audio
Format version                   : Version 1
Format profile                   : Layer 3
Codec ID                         : 55
Codec ID/Hint                    : MP3
Duration                         : 2h 40mn
Bit rate mode                    : Variable
Bit rate                         : 72.5 Kbps
Minimum bit rate                 : 32.0 Kbps
Channel(s)                       : 1 channel
Sampling rate                    : 48.0 KHz
Compression mode                 : Lossy
Stream size                      : 83.2 MiB (12%)
Alignment                        : Aligned on interleaves
Interleave, duration             : 24 ms (0.72 video frame)
Interleave, preload duration     : 195 ms
Title                            : karungali T80 2_0ch 192Kbps DELAY 0ms
Writing library                  : LAME3.98r

